HIERARCHY
ROOT Pelvis
{
	OFFSET 0.000000 0.941512 0.000000
	CHANNELS 6 Xposition Yposition Zposition Zrotation Yrotation Xrotation 
	JOINT Pelvis_L_Hip
	{
		OFFSET 0.000000 0.000000 0.000000
		CHANNELS 3 Zrotation Yrotation Xrotation
		JOINT L_Hip
		{
			OFFSET 0.062321 -0.080322 -0.016990
			CHANNELS 3 Zrotation Yrotation Xrotation
			JOINT L_Knee
			{
				OFFSET 0.093051 -0.381305 -0.029784
				CHANNELS 3 Zrotation Yrotation Xrotation
				JOINT L_Ankle
				{
					OFFSET -0.010371 -0.431000 -0.033614
					CHANNELS 3 Zrotation Yrotation Xrotation
					End Site #name: L_Foot
					{
						OFFSET 0.069299 -0.038670 0.119418
					}
				}
			}
		}
	}
	JOINT Pelvis_R_Hip
	{
		OFFSET 0.000000 0.000000 0.000000
		CHANNELS 3 Zrotation Yrotation Xrotation
		JOINT R_Hip
		{
			OFFSET -0.055334 -0.094904 -0.002373
			CHANNELS 3 Zrotation Yrotation Xrotation
			JOINT R_Knee
			{
				OFFSET -0.064207 -0.384370 -0.019592
				CHANNELS 3 Zrotation Yrotation Xrotation
				JOINT R_Ankle
				{
					OFFSET 0.025418 -0.419734 -0.065953
					CHANNELS 3 Zrotation Yrotation Xrotation
					End Site #name: R_Foot
					{
						OFFSET -0.057233 -0.039888 0.132134
					}
				}
			}
		}
	}
	JOINT Pelvis_Spine1
	{
		OFFSET 0.000000 0.000000 0.000000
		CHANNELS 3 Zrotation Yrotation Xrotation
		JOINT Spine1
		{
			OFFSET -0.005562 0.124093 -0.043360
			CHANNELS 3 Zrotation Yrotation Xrotation
			JOINT Spine2
			{
				OFFSET 0.012244 0.139499 0.029894
				CHANNELS 3 Zrotation Yrotation Xrotation
				JOINT Spine3
				{
					OFFSET -0.002556 0.056561 0.009225
					CHANNELS 3 Zrotation Yrotation Xrotation
					JOINT Spine3_Neck
					{
						OFFSET 0.000000 0.000000 0.000000
						CHANNELS 3 Zrotation Yrotation Xrotation
						JOINT Neck
						{
							OFFSET -0.005205 0.217920 -0.024551
							CHANNELS 3 Zrotation Yrotation Xrotation
							End Site #name: Head
							{
								OFFSET 0.002365 0.091850 0.046637
							}
						}
					}
					JOINT Spine3_L_Collar
					{
						OFFSET 0.000000 0.000000 0.000000
						CHANNELS 3 Zrotation Yrotation Xrotation
						JOINT L_Collar
						{
							OFFSET 0.072225 0.116603 -0.009480
							CHANNELS 3 Zrotation Yrotation Xrotation
							JOINT L_Shoulder
							{
								OFFSET 0.115937 -0.058643 -0.021018
								CHANNELS 3 Zrotation Yrotation Xrotation
								JOINT L_Elbow
								{
									OFFSET 0.021994 -0.254722 -0.024492
									CHANNELS 3 Zrotation Yrotation Xrotation
									End Site #name: L_Wrist
									{
										OFFSET 0.048810 -0.240214 0.103329
									}
								}
							}
						}
					}
					JOINT Spine3_R_Collar
					{
						OFFSET 0.000000 0.000000 0.000000
						CHANNELS 3 Zrotation Yrotation Xrotation
						JOINT R_Collar
						{
							OFFSET -0.073372 0.120704 -0.024611
							CHANNELS 3 Zrotation Yrotation Xrotation
							JOINT R_Shoulder
							{
								OFFSET -0.108089 -0.054969 -0.020504
								CHANNELS 3 Zrotation Yrotation Xrotation
								JOINT R_Elbow
								{
									OFFSET -0.033684 -0.260739 0.009889
									CHANNELS 3 Zrotation Yrotation Xrotation
									End Site #name: R_Wrist
									{
										OFFSET -0.067980 -0.232763 0.118463
									}
								}
							}
						}
					}
				}
			}
		}
	}
}
MOTION
Frames: 11
Frame Time: 0.041667
0.000000 0.923029 0.000000 -2.535327 -1.541886 -0.076603 0.000000 0.000000 0.000000 3.707708 -0.494329 -1.011944 5.491996 -0.736153 4.173523 -2.670636 -15.343381 -2.956250 0.000000 0.000000 0.000000 -0.815979 -0.074300 0.734890 -8.254261 1.352050 0.378923 1.339240 17.748167 -6.623063 0.000000 0.000000 0.000000 6.559767 -1.509099 0.630527 -6.825426 4.569128 29.473583 0.885506 0.608528 -40.201971 0.000000 0.000000 0.000000 -0.363154 -0.516749 27.351152 0.000000 0.000000 0.000000 27.120573 -8.794354 -2.003839 -5.522945 1.438543 8.752732 2.126122 4.248431 19.165952 0.000000 0.000000 0.000000 -25.522045 6.807204 -0.017995 12.561861 -3.355649 18.734586 -4.587229 -4.636453 10.001712 
-0.000259 0.923264 -0.000070 -2.581073 -1.497628 -0.251489 0.000000 0.000000 0.000000 3.758954 -0.433977 -0.712361 5.590838 -0.738262 4.045518 -2.741191 -16.165525 -3.177376 0.000000 0.000000 0.000000 -0.651210 -0.117096 0.938687 -8.422181 1.379944 0.380795 1.454753 17.931569 -6.491269 0.000000 0.000000 0.000000 6.620670 -1.565634 0.936583 -6.911003 4.576913 29.274254 0.971486 0.633633 -40.183747 0.000000 0.000000 0.000000 -0.502883 -0.418036 27.600887 0.000000 0.000000 0.000000 27.072432 -9.264487 -2.416269 -5.578693 1.529452 9.373216 2.164775 4.259404 19.176983 0.000000 0.000000 0.000000 -25.574870 7.012873 -0.181104 12.603051 -3.447468 19.109816 -4.596726 -4.583255 9.746791 
-0.000045 0.923365 -0.000452 -2.557775 -1.498081 -0.320145 0.000000 0.000000 0.000000 3.657444 -0.437582 -0.764709 5.680231 -0.755030 4.134614 -2.751513 -15.879265 -3.047174 0.000000 0.000000 0.000000 -0.696720 -0.105821 0.885107 -8.379706 1.396505 0.551395 1.390026 17.799536 -6.553741 0.000000 0.000000 0.000000 6.655769 -1.581878 0.999736 -6.940542 4.586123 29.246566 0.978158 0.622751 -40.148292 0.000000 0.000000 0.000000 -0.448497 -0.458578 27.625128 0.000000 0.000000 0.000000 27.148487 -9.304575 -2.442255 -5.682927 1.542118 9.371257 2.154718 4.245652 19.106366 0.000000 0.000000 0.000000 -25.627265 7.027873 -0.181070 12.655626 -3.423497 18.989302 -4.617375 -4.633165 9.936277 
-0.000257 0.923286 -0.000704 -2.572574 -1.497572 -0.375291 0.000000 0.000000 0.000000 3.718866 -0.434125 -0.729956 5.605123 -0.753049 4.227259 -2.664058 -16.560927 -3.449370 0.000000 0.000000 0.000000 -0.638704 -0.108959 0.882471 -8.454928 1.427342 0.684549 1.356077 17.775989 -6.605771 0.000000 0.000000 0.000000 6.625758 -1.587981 1.091825 -6.928593 4.568718 29.159691 0.990690 0.648891 -40.103276 0.000000 0.000000 0.000000 -0.465368 -0.448445 27.621651 0.000000 0.000000 0.000000 27.255690 -9.357454 -2.467927 -5.741996 1.552202 9.391824 2.010534 4.213000 19.112142 0.000000 0.000000 0.000000 -25.705877 7.110421 -0.238639 12.724619 -3.474048 19.177802 -4.610593 -4.602264 9.809434 
-0.000185 0.923315 -0.001014 -2.535366 -1.480011 -0.353938 0.000000 0.000000 0.000000 3.668191 -0.458112 -0.859450 5.658293 -0.767503 4.342893 -2.709220 -16.374917 -3.308734 0.000000 0.000000 0.000000 -0.678984 -0.090324 0.781566 -8.499542 1.447296 0.777193 1.351137 17.933055 -6.680434 0.000000 0.000000 0.000000 6.635046 -1.582518 1.038759 -6.934646 4.575765 29.197170 0.991588 0.635753 -40.125611 0.000000 0.000000 0.000000 -0.485244 -0.432686 27.624210 0.000000 0.000000 0.000000 27.182413 -9.429601 -2.541929 -5.713957 1.569772 9.546774 2.065084 4.203744 18.971247 0.000000 0.000000 0.000000 -25.708936 7.041176 -0.178901 12.568400 -3.499866 19.338825 -4.476423 -4.498403 9.572823 
-0.000176 0.923463 -0.001394 -2.475858 -1.430679 -0.425825 0.000000 0.000000 0.000000 3.623799 -0.451602 -0.844007 5.558456 -0.762154 4.431503 -2.641540 -16.427805 -3.429726 0.000000 0.000000 0.000000 -0.740176 -0.085057 0.770388 -8.491763 1.454176 0.835376 1.362717 17.943880 -6.665875 0.000000 0.000000 0.000000 6.585011 -1.589262 1.167399 -6.913528 4.561677 29.187156 0.962735 0.604482 -40.185917 0.000000 0.000000 0.000000 -0.514575 -0.413113 27.653694 0.000000 0.000000 0.000000 27.148765 -9.525395 -2.628040 -5.688056 1.563712 9.529447 2.065335 4.258070 19.319749 0.000000 0.000000 0.000000 -25.641974 7.057631 -0.208459 12.590016 -3.534435 19.483308 -4.601314 -4.563160 9.648446 
-0.000327 0.923497 -0.001406 -2.507224 -1.499947 -0.519981 0.000000 0.000000 0.000000 3.631472 -0.447389 -0.825975 5.647964 -0.781630 4.551009 -2.721765 -15.934587 -3.113934 0.000000 0.000000 0.000000 -0.698935 -0.081834 0.734825 -8.498413 1.498079 1.142174 1.317211 17.991978 -6.762882 0.000000 0.000000 0.000000 6.636093 -1.608720 1.230642 -6.975987 4.595891 29.208810 0.995196 0.641731 -40.105493 0.000000 0.000000 0.000000 -0.513843 -0.407864 27.508425 0.000000 0.000000 0.000000 27.231743 -9.404753 -2.514303 -5.794160 1.566900 9.451712 2.124625 4.231686 19.063172 0.000000 0.000000 0.000000 -25.736576 7.060369 -0.189480 12.670470 -3.501033 19.309611 -4.584887 -4.626839 9.963913 
-0.000523 0.923522 -0.001740 -2.535655 -1.517940 -0.576439 0.000000 0.000000 0.000000 3.667183 -0.465531 -0.903148 5.666508 -0.803700 4.819292 -2.583833 -16.505177 -3.548081 0.000000 0.000000 0.000000 -0.593365 -0.068276 0.612485 -8.558324 1.548767 1.434444 1.208196 17.953490 -6.943424 0.000000 0.000000 0.000000 6.600073 -1.622052 1.381471 -6.932793 4.568900 29.143248 1.015360 0.652770 -40.074814 0.000000 0.000000 0.000000 -0.518520 -0.402925 27.485937 0.000000 0.000000 0.000000 27.228447 -9.523059 -2.617787 -5.726193 1.586556 9.654926 1.891669 4.166762 18.993084 0.000000 0.000000 0.000000 -25.782870 7.129720 -0.238414 12.577693 -3.526222 19.442869 -4.435143 -4.548963 9.868898 
-0.000804 0.923698 -0.001769 -2.516535 -1.583707 -0.758019 0.000000 0.000000 0.000000 3.638972 -0.427436 -0.738441 5.693477 -0.824476 5.056199 -2.321714 -16.284099 -3.858574 0.000000 0.000000 0.000000 -0.576969 -0.072574 0.632712 -8.591032 1.594565 1.723573 1.167040 17.936276 -7.006833 0.000000 0.000000 0.000000 6.533717 -1.631584 1.568103 -6.957015 4.586905 29.171163 1.065601 0.683574 -40.007306 0.000000 0.000000 0.000000 -0.501770 -0.409712 27.388506 0.000000 0.000000 0.000000 27.168709 -9.474056 -2.587323 -5.637355 1.570387 9.612445 1.888698 4.154201 18.917377 0.000000 0.000000 0.000000 -25.636119 7.119415 -0.254207 12.477348 -3.525772 19.468558 -4.543030 -4.551274 9.695155 
-0.001051 0.923758 -0.001638 -2.548826 -1.570415 -0.797548 0.000000 0.000000 0.000000 3.689461 -0.462570 -0.889887 5.689403 -0.853589 5.461916 -2.211317 -16.149892 -3.972403 0.000000 0.000000 0.000000 -0.470056 -0.068901 0.572379 -8.693227 1.649846 1.989402 1.010394 17.939703 -7.291795 0.000000 0.000000 0.000000 6.615533 -1.658619 1.626685 -7.003941 4.599390 29.113551 1.045454 0.672207 -39.951113 0.000000 0.000000 0.000000 -0.444527 -0.455022 27.393011 0.000000 0.000000 0.000000 27.193840 -9.396515 -2.514160 -5.698548 1.543970 9.361157 2.065744 4.226261 19.117042 0.000000 0.000000 0.000000 -25.714056 7.110834 -0.233090 12.516743 -3.526465 19.454539 -4.464454 -4.530256 9.736082 
-0.001481 0.923831 -0.001640 -2.593856 -1.650308 -0.825748 0.000000 0.000000 0.000000 3.778478 -0.477547 -0.936269 5.651732 -0.854802 5.540693 -2.390949 -15.828445 -3.574552 0.000000 0.000000 0.000000 -0.380607 -0.044509 0.392017 -8.699330 1.707225 2.385984 0.958861 17.864332 -7.350449 0.000000 0.000000 0.000000 6.650520 -1.691781 1.799740 -7.037498 4.612862 29.065167 1.045892 0.663723 -40.009370 0.000000 0.000000 0.000000 -0.398611 -0.481924 27.345636 0.000000 0.000000 0.000000 27.197765 -9.505666 -2.616686 -5.645840 1.570407 9.605936 1.943265 4.183574 19.022340 0.000000 0.000000 0.000000 -25.789156 7.163541 -0.255107 12.519590 -3.524700 19.450177 -4.487210 -4.564714 9.850775 
